<svg xmlns="http://www.w3.org/2000/svg" xmlns:xlink="http://www.w3.org/1999/xlink" width="300px" height="240px" viewBox="552.5 470 300 240" preserveAspectRatio="xMidYMid meet" ><rect id="svgEditorBackground" x="552.5" y="470" width="300" height="240" style="fill:url(#svgEditorGrid2); stroke: none;"/><defs id="svgEditorDefs"><linearGradient gradientUnits="objectBoundingBox" id="lrgd2-e1-50-reflect" spreadMethod="reflect" x1="0%" x2="50%" y1="0%" y2="0%"><stop offset="0%" stop-color="lightblue"/><stop offset="100%" stop-color="#ef5b2b"/></linearGradient><linearGradient gradientUnits="objectBoundingBox" id="lgrd4-green-red-blue" spreadMethod="pad" x1="0%" x2="100%" y1="0%" y2="0%"><stop offset="10%" stop-color="#00cc00" stop-opacity="1"/><stop offset="30%" stop-color="#006600" stop-opacity="1"/><stop offset="70%" stop-color="#cc0000" stop-opacity="1"/><stop offset="90%" stop-color="#000099" stop-opacity="1"/></linearGradient><linearGradient gradientUnits="objectBoundingBox" id="lgrd6-arc" spreadMethod="pad" x1="0.52" x2="0.55" y1="1" y2="0"><stop offset="0.11" style="stop-color:red;stop-opacity:1;"/><stop offset="0.265" style="stop-color:rgb(255, 140, 0);stop-opacity:0.735;"/><stop offset="0.54" stop-color="yellow"/><stop offset="0.7" stop-color="rgb(50, 205, 50)"/><stop offset="0.79" stop-color="#0071FF" stop-opacity="0.605"/><stop offset="1" stop-color="rgb(148, 0, 211)"/></linearGradient><radialGradient cx="50%" cy="50%" fx="50%" fy="50%" gradientUnits="objectBoundingBox" id="rgrd2-b" r="5%" spreadMethod="repeat"><stop offset="5%" stop-color="red" stop-opacity="1"/><stop offset="95%" stop-color="yellow" stop-opacity="1"/></radialGradient><radialGradient cy="60%" fx="45%" fy="45%" gradientUnits="objectBoundingBox" id="rgrd11-b" r="2"><stop offset="0%" stop-color="#48afc1"/><stop offset="10%" stop-color="#b4c63b"/><stop offset="20%" stop-color="#ef5b2b"/><stop offset="30%" stop-color="#503969"/><stop offset="40%" stop-color="#ab6294"/><stop offset="50%" stop-color="#1cb98f"/><stop offset="60%" stop-color="#48afc1"/><stop offset="70%" stop-color="#b4c63b"/><stop offset="80%" stop-color="#ef5b2b"/><stop offset="90%" stop-color="#503969"/><stop offset="100%" stop-color="#ab6294"/></radialGradient><linearGradient id="lgrd3-fr-h"><stop offset="0%" stop-color="blue"/><stop offset="50%" stop-color="black" stop-opacity="0"/><stop offset="100%" stop-color="red"/></linearGradient><linearGradient gradientUnits="objectBoundingBox" id="lgrd2-fire" spreadMethod="pad" x1="0%" x2="100%" y1="0%" y2="0%"><stop offset="0%" style="stop-color:rgb(255,255,0);stop-opacity:1"/><stop offset="100%" style="stop-color:rgb(255,0,0);stop-opacity:1"/></linearGradient><linearGradient gradientUnits="objectBoundingBox" id="lgrd2-peachpuff-sienna-v" spreadMethod="pad" x1="0%" x2="0%" y1="0%" y2="100%"><stop offset="0%" style="stop-color:peachpuff;  stop-opacity:0.84;"/><stop offset="100%" style="stop-color:sienna;  stop-opacity:1"/></linearGradient><linearGradient gradientUnits="objectBoundingBox" id="lgrd2-peachpuff-sienna-h" spreadMethod="pad" x1="0%" x2="100%" y1="0%" y2="0%"><stop offset="0%" style="stop-color:peachpuff;  stop-opacity:1;"/><stop offset="100%" style="stop-color:sienna;  stop-opacity:1"/></linearGradient><linearGradient gradientUnits="objectBoundingBox" id="lgrd2-b" spreadMethod="pad" x1="0" x2="100%" y1="0" y2="0"><stop offset="0%" stop-color="#BBC42A"/><stop offset="100%" stop-color="#ED6E46"/></linearGradient><pattern height="20%" id="wheel-darkblue-obox" patternUnits="objectBoundingBox" viewBox="-20 -20 168 168" width="20%" x="0%" y="0%"><path d="M3.798 80h12.338c1.539 0 2.919 0.931 3.505 2.354 0.006 0.016 0.013 0.031 0.020 0.047 0.586 1.418 0.266 3.045-0.819 4.131l-8.725 8.725c-1.483 1.484-1.483 3.888 0 5.371l17.256 17.256c1.483 1.484 3.888 1.484 5.371 0l8.724-8.725c1.085-1.085 2.713-1.404 4.131-0.819 0.016 0.006 0.031 0.013 0.047 0.019 1.422 0.586 2.354 1.966 2.354 3.505v12.338c0 2.098 1.7 3.798 3.798 3.798h24.404c2.098 0 3.798-1.701 3.798-3.798v-12.338c0-1.539 0.931-2.919 2.354-3.505 0.016-0.006 0.031-0.013 0.047-0.019 1.418-0.586 3.045-0.266 4.131 0.819l8.724 8.725c1.484 1.484 3.889 1.484 5.371 0l17.256-17.256c1.484-1.484 1.484-3.888 0-5.371l-8.725-8.725c-1.085-1.085-1.404-2.713-0.819-4.131 0.006-0.016 0.013-0.031 0.019-0.047 0.586-1.422 1.966-2.354 3.505-2.354h12.338c2.098 0 3.798-1.701 3.798-3.798v-24.404c0-2.098-1.701-3.798-3.798-3.798h-12.338c-1.539 0-2.919-0.931-3.505-2.354-0.006-0.016-0.013-0.031-0.019-0.047-0.586-1.418-0.266-3.045 0.819-4.131l8.725-8.724c1.484-1.483 1.484-3.888 0-5.372l-17.256-17.256c-1.483-1.483-3.888-1.483-5.371 0l-8.724 8.725c-1.085 1.084-2.713 1.404-4.131 0.819-0.016-0.006-0.031-0.013-0.047-0.020-1.422-0.584-2.354-1.965-2.354-3.504v-12.338c0-2.098-1.701-3.798-3.798-3.798h-24.404c-2.098 0-3.798 1.7-3.798 3.798v12.338c0 1.539-0.931 2.919-2.354 3.505-0.016 0.006-0.031 0.013-0.047 0.020-1.418 0.586-3.045 0.266-4.131-0.819l-8.724-8.725c-1.483-1.483-3.889-1.483-5.372 0l-17.256 17.256c-1.483 1.483-1.483 3.888 0 5.371l8.725 8.724c1.084 1.084 1.404 2.713 0.819 4.131-0.006 0.016-0.013 0.031-0.020 0.047-0.585 1.421-1.966 2.353-3.505 2.353h-12.338c-2.098 0-3.798 1.7-3.798 3.798v24.404c0 2.098 1.7 3.798 3.798 3.798zM64 32c17.673 0 32 14.327 32 32s-14.327 32-32 32-32-14.327-32-32 14.327-32 32-32z" style="fill:darkblue;stroke:none;"/><path d="M72 64c0 4.418-3.582 8-8 8s-8-3.582-8-8c0-4.418 3.582-8 8-8s8 3.582 8 8z" style="fill:darkblue;stroke:none;"/></pattern><pattern height="10" id="wheel-darkblue-usr" patternUnits="userSpaceOnUse" viewBox="-20 -20 168 168" width="10" x="0" y="0"><path d="M3.798 80h12.338c1.539 0 2.919 0.931 3.505 2.354 0.006 0.016 0.013 0.031 0.020 0.047 0.586 1.418 0.266 3.045-0.819 4.131l-8.725 8.725c-1.483 1.484-1.483 3.888 0 5.371l17.256 17.256c1.483 1.484 3.888 1.484 5.371 0l8.724-8.725c1.085-1.085 2.713-1.404 4.131-0.819 0.016 0.006 0.031 0.013 0.047 0.019 1.422 0.586 2.354 1.966 2.354 3.505v12.338c0 2.098 1.7 3.798 3.798 3.798h24.404c2.098 0 3.798-1.701 3.798-3.798v-12.338c0-1.539 0.931-2.919 2.354-3.505 0.016-0.006 0.031-0.013 0.047-0.019 1.418-0.586 3.045-0.266 4.131 0.819l8.724 8.725c1.484 1.484 3.889 1.484 5.371 0l17.256-17.256c1.484-1.484 1.484-3.888 0-5.371l-8.725-8.725c-1.085-1.085-1.404-2.713-0.819-4.131 0.006-0.016 0.013-0.031 0.019-0.047 0.586-1.422 1.966-2.354 3.505-2.354h12.338c2.098 0 3.798-1.701 3.798-3.798v-24.404c0-2.098-1.701-3.798-3.798-3.798h-12.338c-1.539 0-2.919-0.931-3.505-2.354-0.006-0.016-0.013-0.031-0.019-0.047-0.586-1.418-0.266-3.045 0.819-4.131l8.725-8.724c1.484-1.483 1.484-3.888 0-5.372l-17.256-17.256c-1.483-1.483-3.888-1.483-5.371 0l-8.724 8.725c-1.085 1.084-2.713 1.404-4.131 0.819-0.016-0.006-0.031-0.013-0.047-0.020-1.422-0.584-2.354-1.965-2.354-3.504v-12.338c0-2.098-1.701-3.798-3.798-3.798h-24.404c-2.098 0-3.798 1.7-3.798 3.798v12.338c0 1.539-0.931 2.919-2.354 3.505-0.016 0.006-0.031 0.013-0.047 0.020-1.418 0.586-3.045 0.266-4.131-0.819l-8.724-8.725c-1.483-1.483-3.889-1.483-5.372 0l-17.256 17.256c-1.483 1.483-1.483 3.888 0 5.371l8.725 8.724c1.084 1.084 1.404 2.713 0.819 4.131-0.006 0.016-0.013 0.031-0.020 0.047-0.585 1.421-1.966 2.353-3.505 2.353h-12.338c-2.098 0-3.798 1.7-3.798 3.798v24.404c0 2.098 1.7 3.798 3.798 3.798zM64 32c17.673 0 32 14.327 32 32s-14.327 32-32 32-32-14.327-32-32 14.327-32 32-32z" style="fill:darkblue;stroke:none;"/><path d="M72 64c0 4.418-3.582 8-8 8s-8-3.582-8-8c0-4.418 3.582-8 8-8s8 3.582 8 8z" style="fill:darkblue;stroke:none;"/></pattern><pattern height="10" id="cloud-gray-usr" patternUnits="userSpaceOnUse" viewBox="-20 -20 168 168" width="10" x="0" y="0"><path d="M40 112v16l16-24h-16v-16l-16 24z" style="fill:black;stroke:none;"/><path d="M128 60c0-15.464-12.536-28-28-28-0.076 0-0.15 0.005-0.226 0.005-1.987-18.002-17.243-32.005-35.774-32.005s-33.787 14.004-35.774 32.005c-0.076 0-0.15-0.005-0.226-0.005-15.464 0-28 12.536-28 28s12.536 28 28 28h72c15.464 0 28-12.536 28-28z" style="fill:gray;stroke:none;"/><path d="M72 112h16v16l16-24h-16v-16z" style="fill:black;stroke:none;"/></pattern><pattern height="10" id="hatch-black-dash-120" patternTransform="rotate(120) scale(0.4)" patternUnits="userSpaceOnUse" viewBox="0 0 24 10" width="24" x="0" y="0"><line style="stroke:black;stroke-width:1px;stroke-dasharray:4,4;" x1="0" x2="24" y1="5" y2="5"/></pattern><pattern height="10" id="hatch-blue-dash-45" patternTransform="rotate(45) scale(0.4)" patternUnits="userSpaceOnUse" viewBox="0 0 24 10" width="24" x="0" y="0"><line style="stroke:blue;stroke-width:1px;stroke-dasharray:4,4;" x1="0" x2="24" y1="5" y2="5"/></pattern><pattern height="10" id="hatch-blue-dash-120" patternTransform="rotate(120) scale(0.4)" patternUnits="userSpaceOnUse" viewBox="0 0 24 10" width="24" x="0" y="0"><line style="stroke:blue;stroke-width:1px;stroke-dasharray:4,4;" x1="0" x2="24" y1="5" y2="5"/></pattern><pattern height="100%" id="ellipse-center" patternContentUnits="objectBoundingBox" patternUnits="objectBoundingBox" preserveAspectRatio="xMinYMin meet" width="100%" x="0%" y="0%"><circle cx="0.5" cy="0.5" r="0.5" style="fill:navy;fill-opacity:0.1;stroke:none;"/><circle cx="0.5" cy="0.5" r="0.4" style="fill:navy;fill-opacity:0.2;stroke:none;"/><circle cx="0.5" cy="0.5" r="0.3" style="fill:navy;fill-opacity:0.4;stroke:none;"/><circle cx="0.5" cy="0.5" r="0.2" style="fill:navy;fill-opacity:0.6;stroke:none;"/><circle cx="0.5" cy="0.5" r="0.1" style="fill:navy;fill-opacity:1;stroke:none;"/></pattern><pattern height="20" id="square-p" patternContentUnits="userSpaceOnUse" patternUnits="userSpaceOnUse" preserveAspectRatio="xMinYMin meet" viewBox="0 0 20 20" width="20" x="0" y="0"><rect fill="#fff" height="20" width="20"/><rect fill="#ccc" height="10" width="10"/><rect fill="#ccc" height="10" width="10" x="10" y="10"/></pattern><pattern height="16" id="screw-20-16" patternContentUnits="userSpaceOnUse" patternUnits="userSpaceOnUse" preserveAspectRatio="xMinYMin meet" viewBox="0 0 20 16" width="20" x="0" y="0"><rect height="16" style="fill:#DFDBE5;stroke:none;" width="20" x="0" y="0"/><path d="M0 .04C2.6.22 4.99 1.1 7 2.5A13.94 13.94 0 0 1 15 0h4c.34 0 .67.01 1 .04v2A12 12 0 0 0 7.17 12h5.12A7 7 0 0 1 20 7.07V14a5 5 0 0 0-3-4.58A5 5 0 0 0 14 14H0V7.07c.86.12 1.67.4 2.4.81.75-1.52 1.76-2.9 2.98-4.05C3.79 2.83 1.96 2.2 0 2.04v-2z" fill-rule="evenodd" style="fill:#9C92AC;fill-opacity:0.4;"/></pattern><pattern height="10" id="meal-steelblue-usr" patternUnits="userSpaceOnUse" viewBox="-20 -20 168 168" width="10" x="0" y="0"><path d="M20 0c-2.209 0-4 1.791-4 4v48c0 2.209 1.791 4 4 4h32c2.209 0 4-1.791 4-4v-48c0-2.209-1.791-4-4-4s-4 1.791-4 4v44h-8v-44c0-2.209-1.791-4-4-4s-4 1.791-4 4v44h-8v-44c0-2.209-1.791-4-4-4z" style="fill:steelblue;stroke:none;"/><path d="M36 128c6.627 0 12-5.373 12-12v-52h-24v52c0 6.627 5.372 12 12 12z" style="fill:steelblue;stroke:none;"/><path d="M80 116c0 6.627 5.373 12 12 12s12-5.373 12-12v-36h-24v36z" style="fill:steelblue;stroke:none;"/><path d="M80 0v72h32c0-72-32-72-32-72z" style="fill:steelblue;stroke:none;"/></pattern><pattern id="svgEditorGrid0" patternUnits="userSpaceOnUse" x="0" y="0" width="20" height="20" viewBox="0 0 10 10">
		<defs>
			<marker id="svgEditorGridMkCircle" viewBox="0 0 2 2" refX="1" refY="1" markerUnits="strokeWidth" markerWidth="2" markerHeight="2" orient="0deg">
			   <circle cx="1" cy="1" r="1" style="fill:black;stroke:none;"/>
			</marker>
			<marker id="svgEditorGridMkSquare" viewBox="0 0 2 2" refX="1" refY="1" markerUnits="strokeWidth" markerWidth="2" markerHeight="2" orient="0deg">
			   <rect x="0" y="0" width="2" height="2" style="fill:black;stroke:none;"/>
			</marker>
		</defs>
		<g marker-start="url(#svgEditorGridMkCircle)" marker-end="url(#svgEditorGridMkCircle)" marker-mid="url(#svgEditorGridMkCircle)" stroke="none">
			<path d="M0,0M10,0M10,10M0,10" stroke-width="0.4"/>
			<path d="M5,0M0,5M5,5M10,5M5,10" stroke-width="0.2"/>
			<g stroke-width="0.125">
				<path d="M1,0M2,0M3,0M4,0M6,0M7,0M8,0M9,0"/>
				<path d="M0,1M1,1M2,1M3,1M4,1M5,1M6,1M7,1M8,1M9,1M10,1"/>
				<path d="M0,2M1,2M2,2M3,2M4,2M5,2M6,2M7,2M8,2M9,2M10,2"/>
				<path d="M0,3M1,3M2,3M3,3M4,3M5,3M6,3M7,3M8,3M9,3M10,3"/>
				<path d="M0,4M1,4M2,4M3,4M4,4M5,4M6,4M7,4M8,4M9,4M10,4"/>
				<path d="M1,5M2,5M3,5M4,5M6,5M7,5M8,5M9,5"/>
				<path d="M0,6M1,6M2,6M3,6M4,6M5,6M6,6M7,6M8,6M9,6M10,6"/>
				<path d="M0,7M1,7M2,7M3,7M4,7M5,7M6,7M7,7M8,7M9,7M10,7"/>
				<path d="M0,8M1,8M2,8M3,8M4,8M5,8M6,8M7,8M8,8M9,8M10,8"/>
				<path d="M0,9M1,9M2,9M3,9M4,9M5,9M6,9M7,9M8,9M9,9M10,9"/>
				<path d="M1,10M2,10M3,10M4,10M6,10M7,10M8,10M9,10"/>
			</g>
		</g>
    </pattern><pattern id="svgEditorGrid1" patternUnits="userSpaceOnUse" x="0" y="0" width="20" height="20" viewBox="0 0 10 10">
		<g marker-start="url(#svgEditorGridMkSquare)" marker-end="url(#svgEditorGridMkSquare)" marker-mid="url(#svgEditorGridMkSquare)" stroke="none">
			<path d="M0,0M10,0M10,10M0,10" stroke-width="0.4"/>
			<path d="M5,0M0,5M5,5M10,5M5,10" stroke-width="0.2"/>
			<g stroke-width="0.125">
				<path d="M1,0M2,0M3,0M4,0M6,0M7,0M8,0M9,0"/>
				<path d="M0,1M1,1M2,1M3,1M4,1M5,1M6,1M7,1M8,1M9,1M10,1"/>
				<path d="M0,2M1,2M2,2M3,2M4,2M5,2M6,2M7,2M8,2M9,2M10,2"/>
				<path d="M0,3M1,3M2,3M3,3M4,3M5,3M6,3M7,3M8,3M9,3M10,3"/>
				<path d="M0,4M1,4M2,4M3,4M4,4M5,4M6,4M7,4M8,4M9,4M10,4"/>
				<path d="M1,5M2,5M3,5M4,5M6,5M7,5M8,5M9,5"/>
				<path d="M0,6M1,6M2,6M3,6M4,6M5,6M6,6M7,6M8,6M9,6M10,6"/>
				<path d="M0,7M1,7M2,7M3,7M4,7M5,7M6,7M7,7M8,7M9,7M10,7"/>
				<path d="M0,8M1,8M2,8M3,8M4,8M5,8M6,8M7,8M8,8M9,8M10,8"/>
				<path d="M0,9M1,9M2,9M3,9M4,9M5,9M6,9M7,9M8,9M9,9M10,9"/>
				<path d="M1,10M2,10M3,10M4,10M6,10M7,10M8,10M9,10"/>
			</g>
		</g>
    </pattern><pattern id="svgEditorGrid2" patternUnits="userSpaceOnUse" x="0" y="0" width="10" height="10" viewBox="0 0 10 10">
	 
	 <g style="fill:none;stroke:black;stroke-width:0.4" transform="scale(0.1)">
	     troisieme niveau 10 1 
	     <g style="stroke-dasharray:2 8;">
		<path d="M-1 0 h102 M-1 10 h102 M-1 20 h102 M-1 30 h102 M-1 40 h102 M-1 50 h102 M-1 60 h102 M-1 70 h102 M-1 80 h102 M-1 90 h102 M-1 100 h102"/>
		<path d="M0-1 v102 M10-1 v102 M20-1 v102 M30-1 v102 M40-1 v102 M50 -1 v102 M60-1 v102 M70-1 v102 M80-1 v102 M90-1 v102 M100-1 v102"/>
	     </g>
	      deuxieme niveau 50/3 
	     <g style="stroke-dasharray:6 44;">
		<path d="M-3 0 h106 M-3 50 h106 M-3 100 h106"/>
		<path d="M0-3 v106 M50-3 v106 M100-3 v106"/>
	     </g>
	      premier niveau 100/5 
	      <g style="stroke-dasharray:10 90;">
		<path d="M-5 0 h110 M-5 100 h110"/>
		<path d="M0-5 v119 M100-5 v110"/>
	     </g>
	 </g>
	</pattern><linearGradient gradientUnits="objectBoundingBox" id="lgrd2-black-white" spreadMethod="pad" x1="0%" x2="100%" y1="0%" y2="100%"><stop offset="0%" stop-color="black"/><stop offset="100%" stop-color="white"/></linearGradient><pattern height="10" id="sun-gold-usr" patternUnits="userSpaceOnUse" viewBox="-20 -20 168 168" width="10" x="0" y="0"><path d="M72 16.677v-8.677c0-4.419-3.581-8-8-8s-8 3.581-8 8v8.677c2.603-0.436 5.273-0.677 8-0.677s5.397 0.24 8 0.677z" style="fill:darkviolet;stroke:none;"/><path d="M18.745 109.255c3.125 3.124 8.189 3.124 11.314 0l6.139-6.139c-4.373-3.114-8.199-6.941-11.314-11.314l-6.139 6.139c-3.123 3.123-3.123 8.189 0 11.314z" style="fill:darkviolet;stroke:none;"/><path d="M56 111.323v8.677c0 4.419 3.581 8 8 8s8-3.581 8-8v-8.677c-2.603 0.436-5.273 0.677-8 0.677s-5.397-0.24-8-0.677z" style="fill:darkviolet;stroke:none;"/><path d="M36.197 24.884l-6.139-6.139c-3.125-3.124-8.189-3.124-11.314 0s-3.124 8.189 0 11.314l6.139 6.139c3.115-4.374 6.941-8.2 11.314-11.314z" style="fill:gold;stroke:none;"/><path d="M8 72h8.677c-0.437-2.603-0.677-5.273-0.677-8s0.239-5.397 0.677-8h-8.677c-4.419 0-8 3.581-8 8s3.581 8 8 8z" style="fill:gold;stroke:none;"/><path d="M120 56h-8.677c0.437 2.603 0.677 5.273 0.677 8s-0.239 5.397-0.677 8h8.677c4.419 0 8-3.581 8-8s-3.581-8-8-8z" style="fill:gold;stroke:none;"/><path d="M109.255 18.745c-3.124-3.124-8.189-3.124-11.314 0l-6.139 6.139c4.373 3.114 8.199 6.941 11.314 11.314l6.139-6.139c3.123-3.123 3.123-8.189 0-11.314z" style="fill:gold;stroke:none;"/><path d="M109.255 109.255c3.124-3.124 3.124-8.189 0-11.314l-6.139-6.139c-3.114 4.373-6.941 8.2-11.314 11.314l6.139 6.139c3.123 3.123 8.189 3.123 11.314 0z" style="fill:gold;stroke:none;"/><path d="M104 64c0 22.091-17.909 40-40 40s-40-17.909-40-40c0-22.091 17.909-40 40-40s40 17.909 40 40z" style="fill:gold;stroke:none;"/></pattern></defs><polyline style="stroke:url(#lgrd6-arc); fill: none; stroke-linecap: round; stroke-linejoin: round; stroke-width:10px;" id="e3_polyline" points="679.75 700.125 680 662.375 599.875 601.125 680.063 480 760 601.125 680 662.5"/><polyline style="fill:none; stroke-width:10px; stroke-linecap:round; stroke-linejoin: round; stroke:url(#lgrd6-arc);" id="e4_polyline" points="675 700.063 675.063 665 560.063 665 560 539.938"/><polyline style="stroke: url(&quot;#lgrd6-arc&quot;); fill: none; stroke-width:10px; stroke-linecap:round; stroke-linejoin: round;" id="e5_polyline" points="684.938 700.188 685 665 800 665 800 540"/></svg>