<?xml version="1.0" standalone="no"?>
<!DOCTYPE svg PUBLIC "-//W3C//DTD SVG 20010904//EN"
 "http://www.w3.org/TR/2001/REC-SVG-20010904/DTD/svg10.dtd">
<svg version="1.0" xmlns="http://www.w3.org/2000/svg"
 width="700.000000pt" height="700.000000pt" viewBox="0 0 700.000000 700.000000"
 preserveAspectRatio="xMidYMid meet">
<metadata>
Created by potrace 1.11, written by Peter Selinger 2001-2013
</metadata>
<g transform="translate(0.000000,700.000000) scale(0.100000,-0.100000)"
fill="#000000" stroke="none">
<path d="M3445 6971 c-76 -19 -115 -55 -170 -156 -27 -48 -76 -135 -357 -630
-69 -121 -136 -240 -150 -265 -14 -25 -72 -126 -128 -225 -56 -99 -143 -252
-193 -340 -49 -88 -154 -272 -232 -410 -393 -692 -781 -1376 -808 -1425 -16
-30 -33 -59 -37 -65 -4 -5 -18 -30 -32 -55 -30 -55 -148 -262 -176 -310 -11
-19 -29 -51 -40 -70 -10 -19 -88 -156 -172 -305 -200 -351 -198 -348 -194
-412 6 -100 32 -129 220 -239 82 -48 205 -120 272 -161 68 -40 126 -73 129
-73 2 0 24 -13 48 -30 24 -16 46 -30 48 -30 3 0 150 -86 327 -190 177 -105
326 -190 331 -190 5 0 9 -4 9 -10 0 -5 4 -10 9 -10 10 0 360 -205 374 -219 8
-8 -2072 -14 -2103 -5 -14 4 -16 158 -16 1462 0 1125 -3 1465 -13 1493 -6 21
-25 51 -41 68 -103 107 -269 80 -331 -54 -18 -38 -19 -103 -19 -1621 0 -1179
3 -1590 12 -1615 18 -52 55 -96 102 -118 42 -21 50 -21 1574 -21 l1532 0 0
-57 c1 -409 5 -477 27 -519 56 -104 140 -158 249 -157 109 1 191 53 247 157
21 39 22 55 25 308 l3 268 1549 2 1548 3 43 30 c24 17 52 49 65 75 l23 45 1
1576 c0 1729 3 1633 -59 1693 -36 35 -117 64 -161 59 -72 -9 -127 -48 -161
-114 l-23 -44 0 -1460 -1 -1460 -1067 -1 c-829 -1 -1064 2 -1050 11 15 11 390
232 467 275 35 20 283 166 305 179 21 13 377 222 419 246 36 21 128 75 179
106 15 9 89 52 164 96 75 44 150 91 166 105 71 60 88 163 40 254 -29 56 -32
61 -150 269 -47 83 -96 168 -108 190 -12 22 -39 69 -60 105 -21 36 -48 83 -60
105 -12 22 -90 159 -173 305 -83 146 -161 283 -172 305 -12 22 -125 220 -250
440 -125 220 -239 420 -253 445 -14 25 -62 110 -107 190 -46 80 -92 161 -102
180 -11 19 -60 105 -108 190 -48 85 -99 175 -113 200 -14 25 -45 78 -69 118
-24 41 -43 76 -43 78 0 2 -18 34 -40 70 -22 36 -40 67 -40 69 0 2 -33 61 -73
132 -41 70 -86 151 -102 178 -15 28 -74 132 -131 233 -57 100 -151 264 -208
365 -57 100 -116 205 -131 232 -43 78 -73 114 -113 134 -43 22 -124 33 -167
22z m85 -643 c39 -72 226 -401 249 -438 11 -19 24 -42 28 -50 4 -8 47 -84 95
-169 48 -85 88 -156 88 -158 0 -2 11 -20 23 -41 13 -20 38 -62 54 -92 17 -30
76 -134 130 -230 55 -96 160 -281 233 -410 73 -129 187 -329 253 -445 65 -115
135 -239 155 -275 19 -36 45 -81 57 -100 12 -19 37 -62 55 -95 18 -33 80 -143
138 -245 58 -102 113 -198 122 -215 9 -16 83 -147 165 -290 297 -524 387 -686
383 -690 -2 -2 -53 -33 -113 -68 -61 -35 -185 -109 -277 -163 -93 -55 -176
-103 -186 -109 -15 -9 -291 -171 -332 -195 -103 -62 -154 -90 -161 -90 -5 0
-9 -4 -9 -10 0 -5 -4 -10 -10 -10 -5 0 -54 -26 -107 -58 -54 -32 -282 -167
-508 -299 l-410 -241 -146 0 -147 1 -133 78 c-74 44 -145 86 -159 94 -14 8
-69 41 -123 73 -54 31 -118 68 -141 82 -23 14 -99 59 -169 100 -71 41 -140 82
-155 91 -405 239 -777 457 -812 477 -25 14 -62 36 -83 49 -21 13 -53 32 -70
42 -78 45 -262 152 -265 156 -3 2 10 30 28 62 18 32 47 83 63 113 17 30 50 88
74 128 24 41 43 75 43 78 0 2 22 41 48 86 27 46 129 225 227 398 98 173 243
429 322 568 79 139 153 269 164 290 23 40 92 161 129 227 13 22 49 85 80 140
31 55 67 118 79 140 13 22 84 148 159 280 74 132 169 299 210 370 41 72 86
150 100 175 13 25 40 71 58 103 19 32 34 60 34 63 0 2 11 21 24 42 13 20 86
147 162 282 169 298 176 310 215 383 18 31 35 57 39 57 3 0 17 -19 30 -42z"/>
</g>
</svg>
